<svg id="Capa_1" data-name="Capa 1" xmlns="http://www.w3.org/2000/svg" viewBox="0 0 669 512"><defs><style>.cls-1,.cls-2,.cls-3,.cls-4,.cls-5{fill:none;stroke-miterlimit:10;}.cls-1,.cls-4,.cls-5{stroke:#fff;}.cls-1,.cls-2{stroke-width:16px;}.cls-2,.cls-3{stroke:#000f32;}.cls-3,.cls-4,.cls-5{stroke-width:10px;}.cls-5{stroke-linecap:round;}</style></defs><title>ICONOS BARRA</title><path class="cls-1" d="M387.26,392.27h-267A14.3,14.3,0,0,1,106,378V87.5a14.3,14.3,0,0,1,14.3-14.3H579.7A14.3,14.3,0,0,1,594,87.5V378a14.3,14.3,0,0,1-14.3,14.3H550.58"/><line class="cls-1" x1="105.8" y1="130.4" x2="593.8" y2="130.4"/><line class="cls-1" x1="105.8" y1="191.4" x2="593.8" y2="191.4"/><rect class="cls-2" x="387.26" y="328.9" width="163.31" height="143.33" rx="9.6" ry="9.6"/><path class="cls-2" d="M468.92,228.4h0a52,52,0,0,1,52,52v48.5a0,0,0,0,1,0,0h-104a0,0,0,0,1,0,0V280.4a52,52,0,0,1,52-52Z"/><path class="cls-3" d="M493,389a20.5,20.5,0,1,0-28.25,19v18a7.11,7.11,0,0,0,7.12,7.11h1.26a7.11,7.11,0,0,0,7.12-7.11V408A20.49,20.49,0,0,0,493,389Z"/><rect class="cls-4" x="143" y="296.4" width="91" height="69" rx="18.95" ry="18.95"/><line class="cls-5" x1="158.5" y1="237.54" x2="158.5" y2="255.74"/><line class="cls-5" x1="188.5" y1="237.54" x2="188.5" y2="255.74"/><line class="cls-5" x1="218.5" y1="237.54" x2="218.5" y2="255.74"/></svg>