<svg id="Capa_1" data-name="Capa 1" xmlns="http://www.w3.org/2000/svg" viewBox="0 0 669 512"><defs><style>.cls-1{fill:none;stroke:#fff;stroke-miterlimit:10;stroke-width:16px;}.cls-2{font-size:110px;fill:#000f32;font-family:Roboto-Black, Roboto;}.cls-3{font-size:57.04px;}.cls-4{letter-spacing:-0.02em;}</style></defs><title>ICONOS BARRA</title><path class="cls-1" d="M156,394H94.77a10.59,10.59,0,0,1-10.59-10.59V114.19A10.59,10.59,0,0,1,94.77,103.6H390.39A10.59,10.59,0,0,1,401,114.19V383.36A10.59,10.59,0,0,1,390.39,394H241"/><path class="cls-1" d="M526.5,393.73h55a6.51,6.51,0,0,0,6.51-6.51V290.65a6.5,6.5,0,0,0-1-3.53l-78-120.81a6.51,6.51,0,0,0-5.47-3h-96a6.51,6.51,0,0,0-6.51,6.52V387.22a6.5,6.5,0,0,0,6.51,6.51h39"/><path class="cls-1" d="M535.94,205.44H447.56A5.56,5.56,0,0,0,442,211v66.16a5.56,5.56,0,0,0,5.56,5.56H579.94"/><circle class="cls-1" cx="195.11" cy="385.2" r="43.53"/><circle class="cls-1" cx="485.11" cy="385.2" r="43.53"/><text class="cls-2" transform="translate(110.67 230.07)">FREE<tspan class="cls-3"><tspan x="0" y="68.45">DELIVE</tspan><tspan class="cls-4" x="186.41" y="68.45">R</tspan><tspan x="222.73" y="68.45">Y</tspan></tspan></text></svg>